# xmcd
#
# Track frame offsets:
#	150
#	16170
#	31551
#	45720
#	60105
#	72477
#	82644
#	96762
#	112509
#	127509
#	144096
#	163350
#
# Disc length: 2338 seconds
# Revision: 0
# Processed by: cddbd v1.5.2PL0 Copyright (c) Steve Scherf et al.
# Submitted via: dBpowerAMP V12.0
#
DISCID=7909200c
DTITLE=Various Artist - Next New Heartbreak
DYEAR=2017
DGENRE=Bluegrass
TTITLE0=Brad Hudson - Ramblers Song
TTITLE1=Brad Hudson - Hugging the Hound
TTITLE2=Brad Hudson feat. Dolly Parton - Appalachian Memories
TTITLE3=Brad Hudson - I Wonder What You See In Your Dreams
TTITLE4=Brad Hudson - Next New Heartbreak
TTITLE5=Brad Hudson - Truckers Blues
TTITLE6=Brad Hudson - Smoky Mountain Strong
TTITLE7=Brad Hudson - The Day My Daddy Cried
TTITLE8=Brad Hudson - I Can't Help But Wonder (Where I'm Bound)
TTITLE9=Brad Hudson - World of Forgotten People
TTITLE10=Brad Hudson feat. Jeff and Sheri Easter - Beulah Land
TTITLE11=Brad Hudson - My One and Only (Crystal's Song)
EXTD=
EXTT0=
EXTT1=
EXTT2=
EXTT3=
EXTT4=
EXTT5=
EXTT6=
EXTT7=
EXTT8=
EXTT9=
EXTT10=
EXTT11=
PLAYORDER=
